<svg width="566" height="142" viewBox="0 0 566 142" fill="none" xmlns="http://www.w3.org/2000/svg">
<path fill-rule="evenodd" clip-rule="evenodd" d="M492.866 39.9616H526.014V69.1157C538.119 70.9659 549.826 74.8478 560.639 80.5976C564.685 71.9775 566.49 62.4752 565.886 52.9716C565.282 43.468 562.288 34.2708 557.182 26.2327C552.076 18.1946 545.023 11.5759 536.677 6.99012C528.331 2.40434 518.963 0 509.44 0C499.917 0 490.549 2.40434 482.203 6.99012C473.857 11.5759 466.804 18.1946 461.698 26.2327C456.592 34.2708 453.598 43.468 452.994 52.9716C452.39 62.4752 454.194 71.9775 458.241 80.5976C469.055 74.8494 480.761 70.9676 492.866 69.1157V39.9616Z" fill="#006095"/>
<path fill-rule="evenodd" clip-rule="evenodd" d="M509.44 112.927C518.824 112.931 528.063 110.601 536.322 106.146C544.582 101.691 551.604 95.2513 556.755 87.4067C542.164 79.7313 525.926 75.7206 509.44 75.7206C492.954 75.7206 476.715 79.7313 462.125 87.4067C467.272 95.2551 474.293 101.698 482.554 106.153C490.814 110.609 500.054 112.937 509.44 112.927Z" fill="#D7153A"/>
<path d="M458.271 91.4611L437.754 112.967L458.271 139.805H439.192L424.525 118.039V139.805H409.689V69.6551H411.685C413.372 69.6487 415.044 69.9758 416.604 70.6179C418.164 71.2604 419.582 72.2052 420.775 73.3977C421.969 74.5902 422.915 76.0069 423.558 77.5664C424.202 79.1265 424.53 80.7977 424.525 82.485V108.703L440.09 91.4611H458.271Z" fill="#006095"/>
<path d="M38.7347 137.609C36.7582 139.038 34.3884 139.822 31.9492 139.855H27.5262L0 69.8247H17.7518L35.204 114.315L52.6762 69.8647H67.3529C67.3529 69.8647 48.9821 116.332 42.9916 131.867C42.1979 134.174 40.7112 136.179 38.7347 137.609Z" fill="#006095"/>
<path d="M162.412 91.4406V102.723H154.574V120.295C154.572 121.201 154.748 122.099 155.093 122.937C155.438 123.776 155.945 124.537 156.585 125.179C157.225 125.821 157.985 126.33 158.822 126.678C159.659 127.025 160.557 127.204 161.463 127.204L162.402 127.144V139.735L157.569 139.884C153.116 139.986 148.804 138.321 145.575 135.253C142.345 132.185 140.462 127.963 140.337 123.51V102.723H133.208V91.4406H140.337V79.3795H154.594V91.4406H162.412Z" fill="#006095"/>
<path fill-rule="evenodd" clip-rule="evenodd" d="M94.0005 120.076H130.542C130.75 118.807 130.873 117.526 130.912 116.242C131.023 112.823 130.447 109.417 129.217 106.225C127.987 103.034 126.129 100.121 123.753 97.6613C121.421 95.2032 118.613 93.2463 115.5 91.9086C112.388 90.5713 109.035 89.8815 105.647 89.8815C102.259 89.8815 98.9065 90.5713 95.7937 91.9086C92.6808 93.2463 89.8728 95.2032 87.5408 97.6613C82.8917 102.541 80.3127 109.032 80.3443 115.772C80.376 122.512 83.0159 128.978 87.7105 133.814C90.0399 136.247 92.8462 138.173 95.9539 139.472C99.0617 140.771 102.404 141.414 105.772 141.362C110.985 141.408 116.073 139.77 120.279 136.69C124.362 133.642 127.482 129.482 129.264 124.709H115.676C114.663 126.506 113.195 128.005 111.42 129.057C109.645 130.108 107.625 130.674 105.562 130.699C102.65 130.716 99.8388 129.629 97.6942 127.659C95.5495 125.688 94.23 122.979 94.0005 120.076ZM112.938 103.593C115.006 105.324 116.399 107.726 116.874 110.381H94.2502C94.7252 107.726 96.1186 105.324 98.1866 103.593C100.255 101.862 102.865 100.913 105.562 100.913C108.259 100.913 110.87 101.862 112.938 103.593Z" fill="#006095"/>
<path d="M60.6336 104.25C60.6283 102.564 60.9565 100.893 61.5994 99.3344C62.2423 97.7753 63.1871 96.3591 64.3795 95.1666C65.5719 93.9742 66.9883 93.0294 68.5472 92.3864C70.1062 91.7438 71.7769 91.4152 73.4631 91.4206H74.8809V139.884H60.6635L60.6336 104.25Z" fill="#006095"/>
<path d="M169.139 99.332C168.496 100.892 168.167 102.563 168.173 104.25L168.212 139.884H182.41V91.4206H181.012C179.325 91.4143 177.653 91.7414 176.093 92.3834C174.533 93.026 173.115 93.9708 171.922 95.1632C170.729 96.3557 169.783 97.7724 169.139 99.332Z" fill="#006095"/>
<path d="M220.02 139.874V110.58C220.027 109.558 219.83 108.544 219.443 107.597C219.055 106.651 218.483 105.79 217.761 105.066C217.039 104.342 216.18 103.768 215.234 103.378C214.289 102.987 213.275 102.788 212.252 102.792C211.187 102.754 210.125 102.934 209.132 103.32C208.138 103.706 207.234 104.291 206.474 105.039C205.715 105.786 205.115 106.681 204.713 107.668C204.311 108.655 204.114 109.714 204.135 110.78V139.834H189.698V91.5205H203.197V96.6623H203.417C205.626 93.7865 208.68 91.6746 212.151 90.6235C215.622 89.5719 219.335 89.6339 222.768 90.8C226.202 91.9661 229.185 94.1785 231.297 97.126C233.41 100.074 234.546 103.609 234.547 107.236V139.874H220.02Z" fill="#006095"/>
<path fill-rule="evenodd" clip-rule="evenodd" d="M336.166 96.6224V91.4806H350.443V139.804H336.146V134.573H335.976C334.667 136.996 332.546 138.88 329.985 139.894C327.475 140.957 324.773 141.49 322.048 141.462C314.853 141.462 309.012 138.956 304.526 133.943C300.213 129.051 298.056 122.944 298.056 115.623C298.056 108.394 300.256 102.33 304.656 97.4311C306.82 94.9653 309.499 93.006 312.505 91.6912C315.51 90.3763 318.768 89.7387 322.048 89.823C324.765 89.7913 327.457 90.3393 329.945 91.4308C332.46 92.479 334.578 94.2964 335.996 96.6224H336.166ZM328.884 127.052C330.317 126.443 331.611 125.55 332.691 124.429V124.418C334.882 122.041 336.06 118.904 335.976 115.672C336.029 114.058 335.763 112.449 335.192 110.938C334.622 109.426 333.758 108.043 332.651 106.866C331.572 105.726 330.265 104.827 328.814 104.227C327.364 103.626 325.804 103.338 324.234 103.382C322.662 103.342 321.1 103.649 319.659 104.28C318.218 104.912 316.934 105.852 315.898 107.036C313.739 109.451 312.591 112.604 312.693 115.842C312.624 119.031 313.819 122.117 316.018 124.429C317.097 125.55 318.392 126.443 319.824 127.052C321.257 127.661 322.798 127.975 324.354 127.975C325.911 127.975 327.452 127.661 328.884 127.052Z" fill="#006095"/>
<path d="M388.033 139.874V110.58C388.04 109.558 387.843 108.544 387.456 107.597C387.068 106.651 386.496 105.79 385.774 105.066C385.052 104.342 384.193 103.768 383.247 103.378C382.302 102.987 381.288 102.788 380.265 102.792C379.2 102.754 378.138 102.934 377.145 103.32C376.151 103.706 375.247 104.291 374.487 105.039C373.727 105.786 373.128 106.681 372.726 107.668C372.324 108.655 372.127 109.714 372.148 110.78V139.834H357.671V91.5205H371.17V96.6623H371.409C373.619 93.7865 376.673 91.6746 380.144 90.6235C383.615 89.5719 387.327 89.6339 390.761 90.8C394.195 91.9661 397.178 94.1785 399.29 97.126C401.402 100.074 402.539 103.609 402.54 107.236V139.874H388.033Z" fill="#006095"/>
<path fill-rule="evenodd" clip-rule="evenodd" d="M282.611 102.303C291.956 97.2215 291.387 88.555 290.428 83.7627C289.23 77.7722 282.87 69.7847 268.523 69.8944H241.776V139.875H269.002C286.594 139.875 294.622 129.681 294.402 118.658C294.302 113.745 292.904 105.519 282.611 102.303ZM258.09 82.894H268.623C269.605 82.8555 270.585 83.0134 271.505 83.3586C272.426 83.7037 273.268 84.2298 273.982 84.905C274.696 85.5802 275.269 86.3914 275.665 87.2909C276.061 88.1903 276.274 89.16 276.291 90.1428C276.291 94.5855 272.297 97.4214 268.623 97.4014H258.09V82.894ZM271.448 126.985H258.02V110.291H271.179C272.293 110.239 273.405 110.411 274.451 110.797C275.497 111.183 276.455 111.775 277.268 112.538C278.081 113.301 278.732 114.22 279.183 115.24C279.634 116.259 279.876 117.359 279.894 118.474C279.912 119.589 279.706 120.696 279.288 121.729C278.87 122.763 278.249 123.702 277.462 124.492C276.674 125.28 275.736 125.903 274.703 126.323C273.67 126.743 272.563 126.951 271.448 126.935V126.985Z" fill="#006095"/>
</svg>
